<svg width="50" height="50" viewBox="0 0 50 50" fill="none" xmlns="http://www.w3.org/2000/svg">
<g clip-path="url(#clip0_1_4)">
<path d="M24.8667 37.4C24.8667 36.0583 25.9437 34.9833 27.2875 34.9833C28.6292 34.9833 29.7042 36.0583 29.7042 37.4C29.7053 37.7178 29.6435 38.0326 29.5225 38.3264C29.4015 38.6203 29.2235 38.8872 28.9989 39.112C28.7743 39.3368 28.5075 39.515 28.2138 39.6363C27.9201 39.7576 27.6053 39.8196 27.2875 39.8188C26.9696 39.8201 26.6545 39.7586 26.3604 39.6377C26.0664 39.5168 25.7991 39.3389 25.5741 39.1143C25.3491 38.8896 25.1708 38.6227 25.0493 38.3289C24.9279 38.035 24.8658 37.72 24.8667 37.4021V37.4ZM34.7083 37.4021C34.7083 36.0583 35.7854 34.9813 37.1271 34.9813C38.4687 34.9813 39.5458 36.0583 39.5458 37.4C39.5458 38.7417 38.4687 39.8188 37.1292 39.8188C36.8112 39.8201 36.4961 39.7586 36.2021 39.6377C35.908 39.5168 35.6408 39.3389 35.4158 39.1143C35.1908 38.8896 35.0124 38.6227 34.891 38.3289C34.7696 38.035 34.7075 37.72 34.7083 37.4021V37.4021ZM11.8958 37.4021C11.8958 36.0583 12.9729 34.9813 14.3146 34.9813C15.6562 34.9813 16.7312 36.0583 16.7312 37.4C16.7312 38.7417 15.6562 39.8188 14.3146 39.8188C13.9968 39.8199 13.682 39.7581 13.3881 39.6371C13.0943 39.516 12.8273 39.3381 12.6026 39.1135C12.3778 38.8889 12.1996 38.6221 12.0783 38.3284C11.957 38.0347 11.895 37.7199 11.8958 37.4021V37.4021ZM2.05417 37.4021C2.05417 36.0583 3.13125 34.9813 4.47292 34.9813C5.81458 34.9813 6.89167 36.0583 6.89167 37.4C6.89277 37.718 6.83096 38.033 6.70979 38.3269C6.58863 38.6209 6.41051 38.888 6.18569 39.1128C5.96087 39.3376 5.69379 39.5157 5.39983 39.6369C5.10588 39.7581 4.79086 39.8199 4.47292 39.8188C4.15532 39.8196 3.8407 39.7576 3.54712 39.6365C3.25355 39.5153 2.98681 39.3373 2.76224 39.1128C2.53766 38.8882 2.35969 38.6215 2.23853 38.3279C2.11737 38.0343 2.05543 37.7197 2.05625 37.4021H2.05417ZM21.9521 33.1271H19.8479V41.5917H21.9521V33.1271ZM6.875 41.5917H8.97917V33.1271H6.875V33.8063C6.14154 33.2958 5.2686 33.0237 4.375 33.0271C1.95417 33.0271 0 34.9813 0 37.4021C0 39.8354 1.95417 41.775 4.375 41.775C5.30208 41.775 6.1625 41.4938 6.875 40.9958V41.5917V41.5917ZM39.5292 41.5917H41.6333V33.1271H39.5292V33.8063C38.7957 33.2958 37.9228 33.0237 37.0292 33.0271C34.6083 33.0271 32.6542 34.9813 32.6542 37.4021C32.6522 37.9771 32.7641 38.5467 32.9833 39.0783C33.2025 39.6098 33.5247 40.0928 33.9314 40.4992C34.3381 40.9057 34.8211 41.2277 35.3528 41.4467C35.8845 41.6656 36.4542 41.7772 37.0292 41.775C37.9562 41.775 38.8167 41.4938 39.5292 40.9958V41.5917V41.5917ZM42.4125 38.8417C42.4792 40.55 43.9375 41.7583 46.3708 41.7583C48.3604 41.7583 50 40.8958 50 38.9917C50 37.6667 49.2542 36.8875 47.5312 36.5542L46.1896 36.2917C45.3271 36.125 44.7312 35.9583 44.7312 35.4458C44.7312 34.8833 45.3104 34.6333 46.0396 34.6333C47.1021 34.6333 47.5312 35.1646 47.5646 35.7938H49.6854C49.5688 34.1375 48.2437 33.0271 46.1062 33.0271C43.9042 33.0271 42.5937 34.2354 42.5937 35.8104C42.5937 37.7313 44.1521 38.0458 45.4937 38.2958L46.6042 38.4938C47.4 38.6438 47.7479 38.875 47.7479 39.3396C47.7479 39.7542 47.35 40.1667 46.4042 40.1667C45.0292 40.1667 44.5833 39.4542 44.5667 38.8417H42.4125V38.8417ZM16.7167 30.2438V33.8063C15.9832 33.2958 15.1103 33.0237 14.2167 33.0271C11.7958 33.0271 9.84167 34.9813 9.84167 37.4021C9.84167 39.8354 11.7958 41.775 14.2167 41.775C15.1417 41.775 16.0042 41.4938 16.7167 40.9958V41.5917H18.8208V30.2438H16.7167V30.2438ZM29.6875 30.2438V33.8063C28.954 33.2958 28.0811 33.0237 27.1875 33.0271C24.7687 33.0271 22.8125 34.9813 22.8125 37.4021C22.8106 37.9771 22.9224 38.5467 23.1416 39.0783C23.3608 39.6098 23.6831 40.0928 24.0897 40.4992C24.4964 40.9057 24.9795 41.2277 25.5111 41.4467C26.0428 41.6656 26.6125 41.7772 27.1875 41.775C28.1146 41.775 28.975 41.4938 29.6875 40.9958V41.5917H31.7917V30.2438H29.6875V30.2438ZM5.46667 27.7438L6.89167 30.2438H16.7167L12.8229 23.5167L5.46875 27.7417L5.46667 27.7438ZM21.9521 32.3479V30.2438H29.6875L21.4375 15.9625L14.0646 20.1875L19.8479 30.2438V32.3479H21.9521V32.3479ZM32.8208 30.2438H42.6604L29.9375 8.22501L22.5812 12.4667L32.8208 30.2438V30.2438Z" fill="black"/>
</g>
<defs>
<clipPath id="clip0_1_4">
<rect width="50" height="50" fill="white"/>
</clipPath>
</defs>
</svg>
