<svg width="33" height="32" viewBox="0 0 33 32" fill="none" xmlns="http://www.w3.org/2000/svg">
<g filter="url(#filter0_d_4_61)">
<path d="M29.8008 24.5108C28.9169 23.7228 28.143 22.8194 27.5 21.825C26.798 20.4523 26.3773 18.9533 26.2625 17.4158V12.8875C26.2588 12.3374 26.2097 11.7886 26.1158 11.2467C25.3943 11.1024 24.7009 10.8424 24.0625 10.4767C24.3059 11.2603 24.4295 12.0761 24.4292 12.8967V17.425C24.5415 19.3005 25.0574 21.1297 25.9417 22.7875C26.5745 23.7903 27.3255 24.7136 28.1783 25.5375H4.7025C5.55538 24.7136 6.3063 23.7903 6.93917 22.7875C7.8234 21.1297 8.33932 19.3005 8.45167 17.425V12.8875C8.44685 11.8266 8.65133 10.7752 9.05341 9.79349C9.45549 8.81175 10.0473 7.91897 10.7949 7.16627C11.5425 6.41356 12.4312 5.81571 13.4102 5.40695C14.3891 4.9982 15.4391 4.78656 16.5 4.78416C18.0526 4.7854 19.5704 5.24456 20.8633 6.10416C20.7208 5.58073 20.6408 5.04225 20.625 4.49999V3.92249C19.6679 3.45165 18.6396 3.14194 17.5817 3.00582V1.85083C17.5817 1.52627 17.4527 1.215 17.2232 0.985503C16.9937 0.756006 16.6825 0.627075 16.3579 0.627075C16.0334 0.627075 15.7221 0.756006 15.4926 0.985503C15.2631 1.215 15.1342 1.52627 15.1342 1.85083V3.05166C12.7652 3.38583 10.5972 4.56576 9.03029 6.3736C7.46338 8.18144 6.60342 10.4951 6.60917 12.8875V17.4158C6.49436 18.9533 6.07363 20.4523 5.37167 21.825C4.73998 22.8171 3.97852 23.7204 3.1075 24.5108C3.00972 24.5967 2.93136 24.7025 2.87762 24.821C2.82388 24.9395 2.796 25.0682 2.79584 25.1983V26.445C2.79584 26.6881 2.89241 26.9213 3.06432 27.0932C3.23623 27.2651 3.46939 27.3617 3.7125 27.3617H29.1958C29.439 27.3617 29.6721 27.2651 29.844 27.0932C30.0159 26.9213 30.1125 26.6881 30.1125 26.445V25.1983C30.1123 25.0682 30.0845 24.9395 30.0307 24.821C29.977 24.7025 29.8986 24.5967 29.8008 24.5108V24.5108Z" fill="black"/>
</g>
<defs>
<filter id="filter0_d_4_61" x="-1.20416" y="0.627075" width="35.3167" height="34.7346" filterUnits="userSpaceOnUse" color-interpolation-filters="sRGB">
<feFlood flood-opacity="0" result="BackgroundImageFix"/>
<feColorMatrix in="SourceAlpha" type="matrix" values="0 0 0 0 0 0 0 0 0 0 0 0 0 0 0 0 0 0 127 0" result="hardAlpha"/>
<feOffset dy="4"/>
<feGaussianBlur stdDeviation="2"/>
<feComposite in2="hardAlpha" operator="out"/>
<feColorMatrix type="matrix" values="0 0 0 0 0 0 0 0 0 0 0 0 0 0 0 0 0 0 0.25 0"/>
<feBlend mode="normal" in2="BackgroundImageFix" result="effect1_dropShadow_4_61"/>
<feBlend mode="normal" in="SourceGraphic" in2="effect1_dropShadow_4_61" result="shape"/>
</filter>
</defs>
</svg>
